HIERARCHY
ROOT Hips
{
	OFFSET 0.00000 0.00000 0.00000
	CHANNELS 6 Xposition Yposition Zposition Yrotation Zrotation Xrotation 
	JOINT Lumbar
	{
		OFFSET 0 0 0
		CHANNELS 3 Zrotation Xrotation Yrotation
		JOINT Neck
		{
			OFFSET 0.00 0.2701 0.00
			CHANNELS 3 Zrotation Xrotation Yrotation
			End Site
			{
				OFFSET 0.00 0.1379 0.00
			}
		}
		JOINT RightShoulder
		{
			OFFSET 0.0119 0.2289 0.1181
			CHANNELS 3 Zrotation Xrotation Yrotation
			JOINT RightElbow
			{
				OFFSET 0.00 -0.1475 0.00
				CHANNELS 2 Zrotation Yrotation
				JOINT RightWrist
				{
					OFFSET 0.00 -0.1605 0.00
					CHANNELS 2 Zrotation Xrotation
					End Site
					{
						OFFSET 0.0040 -0.1068 0.0006
					}
				}
			}
		}
		JOINT LeftShoulder
		{
			OFFSET 0.0119 0.2289 -0.1181
			CHANNELS 3 Zrotation Xrotation Yrotation
			JOINT LeftElbow
			{
				OFFSET 0.00 -0.1475 0.00
				CHANNELS 2 Zrotation Yrotation
				JOINT LeftWrist
				{
					OFFSET 0.00 -0.1605 0.00
					CHANNELS 2 Zrotation Xrotation
					End Site
					{
						OFFSET 0.0040 -0.1068 -0.0006
					}
				}
			}
		}
	}
	JOINT RightHip
	{
		OFFSET 0.0316 -0.0424 0.0458
		CHANNELS 3 Zrotation Xrotation Yrotation
		JOINT RightKnee
		{
			OFFSET 0.00 -0.2438 0.00
			CHANNELS 1 Zrotation
			JOINT RightAnkle
			{
				OFFSET 0.00 -0.2449 0.00
				CHANNELS 3 Zrotation Xrotation Yrotation
				End Site
				{
					OFFSET 0.1237 -0.0542 0.0051
				}
			}
		}
	}
	JOINT LeftHip
	{
		OFFSET 0.0316 -0.0424 -0.0458
		CHANNELS 3 Zrotation Xrotation Yrotation
		JOINT LeftKnee
		{
			OFFSET 0.00 -0.2438 0.00
			CHANNELS 1 Zrotation
			JOINT LeftAnkle
			{
				OFFSET 0.00 -0.2449 0.00
				CHANNELS 3 Zrotation Xrotation Yrotation
				End Site
				{
					OFFSET 0.1237 -0.0542 -0.0051
				}
			}
		}
	}
}
MOTION
Frames: 11
Frame Time: 0.02
-9e-05 0.00027 0.00088 11.91149 -24.10689 -5.87182 46.53472 2.65053 -9.56351 -16.06018 4.58811 -1.3487 -22.44264 -9.83966 -6.85796 31.32697 88.96465 7.63416 -0.25767 -28.01105 15.38505 -2.03979 46.9905 -95.29363 13.18616 -0.31976 39.24218 -1.30721 -12.37235 -21.13479 -7.51281 -2.85385 -3.64837 37.15924 9.51573 1.53557 -26.81704 -8.47842 3.82187 4.20436
-0.00069 0.00013 4e-05 11.85053 -24.02504 -5.90232 46.42499 2.6407 -9.51848 -16.05781 4.55428 -1.34916 -22.47819 -9.97599 -6.69477 31.5045 89.00294 7.68741 -0.26107 -27.79712 15.40451 -2.33159 47.30545 -95.22571 13.23406 -0.29437 39.19275 -1.36547 -12.28055 -21.13146 -7.51617 -2.8438 -3.64604 37.06425 9.62209 2.31321 -26.82022 -8.41732 3.76276 4.1693
-0.00128 -1e-05 -0.0008 11.78987 -23.94323 -5.93283 46.31539 2.63087 -9.47362 -16.05553 4.52061 -1.34962 -22.5135 -10.11187 -6.53248 31.68146 89.04396 7.74119 -0.26381 -27.58376 15.42387 -2.62279 47.61935 -95.15807 13.28191 -0.26905 39.1433 -1.42374 -12.18936 -21.12831 -7.51953 -2.83377 -3.64371 36.96937 9.72798 3.0883 -26.82346 -8.35637 3.70383 4.13435
-0.00187 -0.00015 -0.00164 11.7291 -23.8616 -5.96326 46.20597 2.62107 -9.42873 -16.05317 4.48689 -1.35008 -22.54894 -10.24776 -6.3699 31.85846 89.08279 7.79442 -0.26704 -27.37048 15.44327 -2.91374 47.93334 -95.09037 13.32968 -0.24373 39.09397 -1.48184 -12.09793 -21.12494 -7.52288 -2.82374 -3.64138 36.87465 9.834 3.86351 -26.82664 -8.29545 3.64491 4.0994
-0.00246 -0.00029 -0.00247 11.66802 -23.77998 -5.99364 46.09648 2.61127 -9.38367 -16.05071 4.45301 -1.35053 -22.58461 -10.38415 -6.20616 32.03597 89.11727 7.84675 -0.27131 -27.15667 15.46277 -3.20519 48.24833 -95.02239 13.37748 -0.21834 39.0448 -1.53989 -12.00569 -21.12153 -7.52624 -2.81373 -3.63907 36.77987 9.94054 4.64137 -26.82976 -8.23439 3.5858 4.06433
-0.00305 -0.00043 -0.00331 11.60825 -23.69776 -6.02437 45.98663 2.60138 -9.33921 -16.0488 4.41978 -1.351 -22.61915 -10.51895 -6.04687 32.21174 89.17169 7.90349 -0.27093 -26.94428 15.48184 -3.49584 48.55989 -94.95544 13.42543 -0.19318 38.99482 -1.59862 -11.91663 -21.11905 -7.5296 -2.80366 -3.63669 36.68474 10.04504 5.41059 -26.83325 -8.17368 3.52725 4.02962
-0.00364 -0.00057 -0.00415 11.54586 -23.61691 -6.05442 45.87771 2.59173 -9.29361 -16.04575 4.38527 -1.35144 -22.65604 -10.65672 -5.87911 32.39095 89.18743 7.9516 -0.27953 -26.72927 15.50175 -3.78778 48.87817 -94.88649 13.47301 -0.16758 38.9463 -1.65586 -11.82153 -21.11417 -7.53294 -2.79368 -3.63443 36.59051 10.15358 6.19622 -26.83597 -8.11233 3.46765 3.99425
-0.00423 -0.00071 -0.00499 11.48596 -23.53468 -6.08501 45.76777 2.58177 -9.24901 -16.04381 4.35194 -1.35192 -22.69054 -10.79189 -5.7186 32.56673 89.23611 8.00713 -0.2805 -26.51665 15.5209 -4.07853 49.18996 -94.81939 13.52094 -0.14239 38.89686 -1.7146 -11.73152 -21.11247 -7.53635 -2.78367 -3.63209 36.49531 10.25831 6.96694 -26.83942 -8.05156 3.409 3.95947
-0.00481 -0.00086 -0.00583 11.42881 -23.45115 -6.11664 45.65714 2.57175 -9.20586 -16.04303 4.32007 -1.35239 -22.72301 -10.9234 -5.56916 32.73941 89.33643 8.07402 -0.26946 -26.30694 15.53907 -4.36799 49.49512 -94.75451 13.56931 -0.11768 38.84454 -1.77469 -11.64966 -21.11084 -7.53961 -2.7734 -3.62955 36.39938 10.35871 7.71884 -26.84371 -7.99153 3.35154 3.92545
-0.00541 -0.00099 -0.00664 11.35496 -23.37623 -6.14344 45.55214 2.56305 -9.15503 -16.03497 4.27982 -1.35273 -22.76984 -11.07452 -5.36268 32.93324 89.17388 8.08243 -0.31943 -26.08044 15.56273 -4.66536 49.84234 -94.67672 13.61519 -0.09016 38.80352 -1.82557 -11.52672 -21.09731 -7.54304 -2.76396 -3.62783 36.309 10.485 8.57729 -26.84299 -7.92735 3.28733 3.88716
-0.00598 -0.00115 -0.00753 11.31692 -23.28249 -6.17968 45.43425 2.55092 -9.11996 -16.04265 4.25726 -1.35346 -22.78465 -11.18517 -5.27225 33.08032 89.54372 8.20974 -0.24593 -25.88944 15.5749 -4.94567 50.09828 -94.62627 13.6663 -0.06859 38.74205 -1.8968 -11.48672 -21.11621 -7.54654 -2.75318 -3.62461 36.20611 10.55605 9.21201 -26.85297 -7.87183 3.23733 3.85785
